<svg xmlns="http://www.w3.org/2000/svg" viewBox="0 0 390 844" fill="none">
  <rect width="390" height="844" fill="#111111"/>

  <!-- Status bar area -->
  <rect x="24" y="56" width="342" height="28" rx="4" fill="#1a1a1a"/>

  <!-- Header -->
  <rect x="24" y="108" width="130" height="20" rx="4" fill="#333333"/>
  <rect x="24" y="136" width="180" height="12" rx="3" fill="#222222"/>

  <!-- Theme color circles -->
  <circle cx="78" cy="210" r="28" fill="#f4f4f0"/>
  <circle cx="156" cy="210" r="28" fill="#555555"/>
  <circle cx="234" cy="210" r="28" fill="#333333"/>
  <circle cx="312" cy="210" r="28" fill="#222222"/>

  <!-- Selected indicator ring on first circle -->
  <circle cx="78" cy="210" r="34" stroke="#f4f4f0" stroke-width="2" fill="none"/>

  <!-- Label -->
  <rect x="24" y="268" width="80" height="10" rx="3" fill="#444444"/>

  <!-- Preview card -->
  <rect x="24" y="300" width="342" height="200" rx="16" fill="#1a1a1a"/>

  <!-- Card header -->
  <rect x="44" y="324" width="120" height="14" rx="3" fill="#f4f4f0" opacity="0.8"/>
  <rect x="44" y="346" width="200" height="10" rx="3" fill="#444444"/>

  <!-- Card habit items preview -->
  <rect x="44" y="376" width="302" height="40" rx="8" fill="#222222"/>
  <circle cx="68" cy="396" r="10" fill="#f4f4f0"/>
  <rect x="88" y="390" width="100" height="10" rx="2" fill="#333333"/>

  <rect x="44" y="426" width="302" height="40" rx="8" fill="#222222"/>
  <circle cx="68" cy="446" r="10" stroke="#555555" stroke-width="1.5" fill="none"/>
  <rect x="88" y="440" width="80" height="10" rx="2" fill="#333333"/>

  <!-- Icon style selector -->
  <rect x="24" y="530" width="100" height="10" rx="3" fill="#444444"/>

  <rect x="24" y="558" width="100" height="80" rx="12" fill="#1a1a1a"/>
  <rect x="48" y="578" width="52" height="28" rx="6" fill="#222222"/>
  <rect x="56" y="614" width="36" height="8" rx="2" fill="#333333"/>

  <rect x="144" y="558" width="100" height="80" rx="12" fill="#1a1a1a" stroke="#f4f4f0" stroke-width="1"/>
  <rect x="168" y="578" width="52" height="28" rx="6" fill="#222222"/>
  <rect x="176" y="614" width="36" height="8" rx="2" fill="#333333"/>

  <rect x="264" y="558" width="100" height="80" rx="12" fill="#1a1a1a"/>
  <rect x="288" y="578" width="52" height="28" rx="6" fill="#222222"/>
  <rect x="296" y="614" width="36" height="8" rx="2" fill="#333333"/>

  <!-- Subtle bottom nav -->
  <rect x="0" y="790" width="390" height="54" fill="#151515"/>
  <circle cx="78" cy="814" r="4" fill="#555555"/>
  <circle cx="195" cy="814" r="4" fill="#555555"/>
  <circle cx="312" cy="814" r="4" fill="#f4f4f0"/>
</svg>
