<svg xmlns="http://www.w3.org/2000/svg" viewBox="0 0 390 844" fill="none">
  <rect width="390" height="844" fill="#111111"/>

  <!-- Status bar area -->
  <rect x="24" y="56" width="342" height="28" rx="4" fill="#1a1a1a"/>

  <!-- Header -->
  <rect x="24" y="108" width="140" height="20" rx="4" fill="#333333"/>
  <rect x="24" y="136" width="200" height="12" rx="3" fill="#222222"/>

  <!-- Month labels -->
  <text x="52" y="186" font-family="sans-serif" font-size="10" fill="#555555">Jan</text>
  <text x="100" y="186" font-family="sans-serif" font-size="10" fill="#555555">Feb</text>
  <text x="148" y="186" font-family="sans-serif" font-size="10" fill="#555555">Mar</text>
  <text x="196" y="186" font-family="sans-serif" font-size="10" fill="#555555">Apr</text>
  <text x="244" y="186" font-family="sans-serif" font-size="10" fill="#555555">May</text>
  <text x="292" y="186" font-family="sans-serif" font-size="10" fill="#555555">Jun</text>
  <text x="340" y="186" font-family="sans-serif" font-size="10" fill="#555555">Jul</text>

  <!-- Heatmap grid: 7 cols x 5 rows -->
  <!-- Row 1 -->
  <rect x="48" y="200" width="36" height="36" rx="6" fill="#f4f4f0" opacity="0.1"/>
  <rect x="96" y="200" width="36" height="36" rx="6" fill="#f4f4f0" opacity="0.3"/>
  <rect x="144" y="200" width="36" height="36" rx="6" fill="#f4f4f0" opacity="0.5"/>
  <rect x="192" y="200" width="36" height="36" rx="6" fill="#f4f4f0" opacity="0.2"/>
  <rect x="240" y="200" width="36" height="36" rx="6" fill="#f4f4f0" opacity="0.7"/>
  <rect x="288" y="200" width="36" height="36" rx="6" fill="#f4f4f0" opacity="0.4"/>
  <rect x="336" y="200" width="36" height="36" rx="6" fill="#f4f4f0" opacity="0.1"/>

  <!-- Row 2 -->
  <rect x="48" y="248" width="36" height="36" rx="6" fill="#f4f4f0" opacity="0.4"/>
  <rect x="96" y="248" width="36" height="36" rx="6" fill="#f4f4f0" opacity="0.6"/>
  <rect x="144" y="248" width="36" height="36" rx="6" fill="#f4f4f0" opacity="0.8"/>
  <rect x="192" y="248" width="36" height="36" rx="6" fill="#f4f4f0" opacity="0.3"/>
  <rect x="240" y="248" width="36" height="36" rx="6" fill="#f4f4f0" opacity="0.5"/>
  <rect x="288" y="248" width="36" height="36" rx="6" fill="#f4f4f0" opacity="0.7"/>
  <rect x="336" y="248" width="36" height="36" rx="6" fill="#f4f4f0" opacity="0.2"/>

  <!-- Row 3 -->
  <rect x="48" y="296" width="36" height="36" rx="6" fill="#f4f4f0" opacity="0.2"/>
  <rect x="96" y="296" width="36" height="36" rx="6" fill="#f4f4f0" opacity="0.1"/>
  <rect x="144" y="296" width="36" height="36" rx="6" fill="#f4f4f0" opacity="0.6"/>
  <rect x="192" y="296" width="36" height="36" rx="6" fill="#f4f4f0" opacity="0.8"/>
  <rect x="240" y="296" width="36" height="36" rx="6" fill="#f4f4f0" opacity="0.3"/>
  <rect x="288" y="296" width="36" height="36" rx="6" fill="#f4f4f0" opacity="0.5"/>
  <rect x="336" y="296" width="36" height="36" rx="6" fill="#f4f4f0" opacity="0.6"/>

  <!-- Row 4 -->
  <rect x="48" y="344" width="36" height="36" rx="6" fill="#f4f4f0" opacity="0.7"/>
  <rect x="96" y="344" width="36" height="36" rx="6" fill="#f4f4f0" opacity="0.3"/>
  <rect x="144" y="344" width="36" height="36" rx="6" fill="#f4f4f0" opacity="0.2"/>
  <rect x="192" y="344" width="36" height="36" rx="6" fill="#f4f4f0" opacity="0.6"/>
  <rect x="240" y="344" width="36" height="36" rx="6" fill="#f4f4f0" opacity="0.8"/>
  <rect x="288" y="344" width="36" height="36" rx="6" fill="#f4f4f0" opacity="0.1"/>
  <rect x="336" y="344" width="36" height="36" rx="6" fill="#f4f4f0" opacity="0.4"/>

  <!-- Row 5 -->
  <rect x="48" y="392" width="36" height="36" rx="6" fill="#f4f4f0" opacity="0.3"/>
  <rect x="96" y="392" width="36" height="36" rx="6" fill="#f4f4f0" opacity="0.5"/>
  <rect x="144" y="392" width="36" height="36" rx="6" fill="#f4f4f0" opacity="0.1"/>
  <rect x="192" y="392" width="36" height="36" rx="6" fill="#f4f4f0" opacity="0.4"/>
  <rect x="240" y="392" width="36" height="36" rx="6" fill="#f4f4f0" opacity="0.2"/>
  <rect x="288" y="392" width="36" height="36" rx="6" fill="#f4f4f0" opacity="0.6"/>
  <rect x="336" y="392" width="36" height="36" rx="6" fill="#f4f4f0" opacity="0.8"/>

  <!-- Stats card -->
  <rect x="24" y="464" width="342" height="80" rx="12" fill="#1a1a1a"/>
  <rect x="44" y="484" width="80" height="14" rx="3" fill="#333333"/>
  <rect x="44" y="506" width="40" height="24" rx="4" fill="#f4f4f0" opacity="0.6"/>
  <rect x="200" y="484" width="80" height="14" rx="3" fill="#333333"/>
  <rect x="200" y="506" width="60" height="24" rx="4" fill="#f4f4f0" opacity="0.4"/>

  <!-- Streak indicator -->
  <rect x="24" y="568" width="342" height="56" rx="12" fill="#1a1a1a"/>
  <rect x="44" y="584" width="100" height="12" rx="3" fill="#333333"/>
  <rect x="44" y="602" width="60" height="10" rx="2" fill="#222222"/>

  <!-- Subtle bottom nav -->
  <rect x="0" y="790" width="390" height="54" fill="#151515"/>
  <circle cx="78" cy="814" r="4" fill="#555555"/>
  <circle cx="195" cy="814" r="4" fill="#555555"/>
  <circle cx="312" cy="814" r="4" fill="#f4f4f0"/>
</svg>
